<?xml version="1.0" encoding="UTF-8"?>
<svg version="1.1" xmlns="http://www.w3.org/2000/svg" width="130" height="118">
<path d="M0 0 C5.03683837 3.14802398 8.94621769 7.33657132 12.84375 11.77734375 C15.91582056 10.42749456 17.75889254 8.96897871 19.96875 6.46484375 C25.04239474 1.20450646 32.51185404 -3.03550954 39.91796875 -3.35546875 C46.31844358 -3.34162989 52.51906006 -3.23460664 58.84375 -2.22265625 C58.84375 -1.56265625 58.84375 -0.90265625 58.84375 -0.22265625 C60.45574012 1.29898203 60.45574012 1.29898203 62.53125 2.77734375 C63.55798828 3.55078125 63.55798828 3.55078125 64.60546875 4.33984375 C66.80693049 5.8743174 66.80693049 5.8743174 69.40625 6.68359375 C73.43039227 8.48929862 74.71560942 11.41871763 76.67578125 15.23828125 C79.83748632 24.81856483 79.33142115 38.72089282 74.8359375 47.81640625 C74.50851563 48.46351562 74.18109375 49.110625 73.84375 49.77734375 C73.51375 50.76734375 73.18375 51.75734375 72.84375 52.77734375 C69.41202625 53.92125167 66.746943 53.90679933 63.12890625 53.91015625 C62.15068153 53.91159134 62.15068153 53.91159134 61.1526947 53.91305542 C59.77505395 53.91373506 58.39740997 53.91189583 57.01977539 53.90771484 C54.91740674 53.9023721 52.81525256 53.90766262 50.71289062 53.9140625 C49.37239536 53.91340151 48.03190024 53.91211992 46.69140625 53.91015625 C45.47461182 53.90902832 44.25781738 53.90790039 43.00415039 53.90673828 C40.40958892 53.80051058 38.30479989 53.5471146 35.84375 52.77734375 C35.34875 49.31234375 35.34875 49.31234375 34.84375 45.77734375 C34.18375 45.77734375 33.52375 45.77734375 32.84375 45.77734375 C32.4415625 44.81828125 32.4415625 44.81828125 32.03125 43.83984375 C30.95707248 41.44602689 30.95707248 41.44602689 27.84375 40.77734375 C27.4725 41.98390625 27.4725 41.98390625 27.09375 43.21484375 C22.8650266 55.26670545 22.8650266 55.26670545 19.84375 56.77734375 C19.34875 57.76734375 19.34875 57.76734375 18.84375 58.77734375 C16.90625 61.40234375 16.90625 61.40234375 14.84375 63.77734375 C14.18375 63.77734375 13.52375 63.77734375 12.84375 63.77734375 C9.36401911 59.57266892 7.56829356 56.21142047 6.84375 50.77734375 C6.18375 50.77734375 5.52375 50.77734375 4.84375 50.77734375 C2.0419008 44.863517 -0.59928409 39.14674975 -2.15625 32.77734375 C-3.14625 32.77734375 -4.13625 32.77734375 -5.15625 32.77734375 C-5.65125 33.76734375 -5.65125 33.76734375 -6.15625 34.77734375 C-6.65125 35.29296875 -7.14625 35.80859375 -7.65625 36.33984375 C-9.87220424 39.9407694 -9.89862981 43.61988682 -10.15625 47.77734375 C-11.14625 48.10734375 -12.13625 48.43734375 -13.15625 48.77734375 C-13.74695014 50.72337649 -13.74695014 50.72337649 -14.15625 52.77734375 C-16.82135038 55.44244413 -18.81808143 56.70417504 -22.62988281 56.91259766 C-23.53061523 56.86022949 -24.43134766 56.80786133 -25.359375 56.75390625 C-26.3390625 56.70234375 -27.31875 56.65078125 -28.328125 56.59765625 C-29.85179687 56.50097656 -29.85179687 56.50097656 -31.40625 56.40234375 C-32.953125 56.31726562 -32.953125 56.31726562 -34.53125 56.23046875 C-37.07364205 56.08922475 -39.61501238 55.93783629 -42.15625 55.77734375 C-42.15625 55.11734375 -42.15625 54.45734375 -42.15625 53.77734375 C-43.14625 53.44734375 -44.13625 53.11734375 -45.15625 52.77734375 C-45.65125 51.29234375 -45.65125 51.29234375 -46.15625 49.77734375 C-46.80660814 48.43598008 -47.4725455 47.10202121 -48.15625 45.77734375 C-50.74678535 40.59627305 -50.34008912 35.62823097 -50.34375 29.96484375 C-50.35599609 28.97935547 -50.36824219 27.99386719 -50.38085938 26.97851562 C-50.3910868 21.90230236 -50.36467527 17.46540441 -48.15625 12.77734375 C-47.49625 12.44734375 -46.83625 12.11734375 -46.15625 11.77734375 C-45.82625 10.78734375 -45.49625 9.79734375 -45.15625 8.77734375 C-44.49625 8.77734375 -43.83625 8.77734375 -43.15625 8.77734375 C-43.15625 8.11734375 -43.15625 7.45734375 -43.15625 6.77734375 C-42.516875 6.67421875 -41.8775 6.57109375 -41.21875 6.46484375 C-40.538125 6.23796875 -39.8575 6.01109375 -39.15625 5.77734375 C-38.82625 4.78734375 -38.49625 3.79734375 -38.15625 2.77734375 C-36.34765625 2.21484375 -36.34765625 2.21484375 -34.15625 1.77734375 C-32.78533741 1.14582931 -31.43065037 0.47799288 -30.09375 -0.22265625 C-20.50149824 -5.23051129 -9.7060917 -4.50080865 0 0 Z M-47.15625 14.77734375 C-46.15625 16.77734375 -46.15625 16.77734375 -46.15625 16.77734375 Z M74.84375 16.77734375 C75.84375 18.77734375 75.84375 18.77734375 75.84375 18.77734375 Z M-49.15625 18.77734375 C-48.15625 20.77734375 -48.15625 20.77734375 -48.15625 20.77734375 Z M-6.15625 30.77734375 C-6.15625 31.10734375 -6.15625 31.43734375 -6.15625 31.77734375 C-4.50625 31.77734375 -2.85625 31.77734375 -1.15625 31.77734375 C-1.15625 31.44734375 -1.15625 31.11734375 -1.15625 30.77734375 C-2.80625 30.77734375 -4.45625 30.77734375 -6.15625 30.77734375 Z M26.84375 38.77734375 C26.84375 39.10734375 26.84375 39.43734375 26.84375 39.77734375 C28.49375 39.77734375 30.14375 39.77734375 31.84375 39.77734375 C31.84375 39.44734375 31.84375 39.11734375 31.84375 38.77734375 C30.19375 38.77734375 28.54375 38.77734375 26.84375 38.77734375 Z M25.84375 40.77734375 C26.84375 42.77734375 26.84375 42.77734375 26.84375 42.77734375 Z M-12.15625 44.77734375 C-11.15625 46.77734375 -11.15625 46.77734375 -11.15625 46.77734375 Z M23.84375 44.77734375 C24.84375 46.77734375 24.84375 46.77734375 24.84375 46.77734375 Z M21.84375 48.77734375 C22.84375 50.77734375 22.84375 50.77734375 22.84375 50.77734375 Z M19.84375 52.77734375 C20.84375 54.77734375 20.84375 54.77734375 20.84375 54.77734375 Z " fill="#0C6CFA" transform="translate(50.15625,6.22265625)"/>
<path d="M0 0 C1.67542976 0.28604898 3.34385343 0.61781233 5 1 C5.12375 1.94875 5.2475 2.8975 5.375 3.875 C5.71687177 7.08667191 5.71687177 7.08667191 8 9 C10.75566251 11.75566251 10.45934233 14.21539633 11 18 C11.66 18.66 12.32 19.32 13 20 C14.58971965 22.38457948 15.86741593 24.6304124 17.125 27.1875 C17.47820313 27.90292969 17.83140625 28.61835937 18.1953125 29.35546875 C18.46085937 29.89816406 18.72640625 30.44085938 19 31 C21.16666667 30.16666667 21.16666667 30.16666667 22 28 C22.515625 27.401875 23.03125 26.80375 23.5625 26.1875 C25.22352606 24.11388647 25.22352606 24.11388647 24.9375 21.6875 C25.03050632 17.6882281 26.88955417 15.36352304 29 12 C29.66 12 30.32 12 31 12 C31.144375 11.360625 31.28875 10.72125 31.4375 10.0625 C32 8 32 8 33 7 C34.99958364 6.95919217 37.00045254 6.95745644 39 7 C39.99 9.31 40.98 11.62 42 14 C50.25 14.33 58.5 14.66 67 15 C67.99 17.475 67.99 17.475 69 20 C68.26555664 20.40992187 67.53111328 20.81984375 66.77441406 21.2421875 C64.01237787 22.99215763 61.92035798 24.82124206 59.609375 27.125 C58.81789063 27.91390625 58.02640625 28.7028125 57.2109375 29.515625 C56.39882812 30.33546875 55.58671875 31.1553125 54.75 32 C53.92242187 32.81984375 53.09484375 33.6396875 52.2421875 34.484375 C51.45585938 35.27328125 50.66953125 36.0621875 49.859375 36.875 C49.14233398 37.59429687 48.42529297 38.31359375 47.68652344 39.0546875 C45.79044652 40.99114261 45.79044652 40.99114261 45 44 C43.515 44.495 43.515 44.495 42 45 C41.63660749 46.32545644 41.30653932 47.66025281 41 49 C39.7565918 50.58398437 39.7565918 50.58398437 38.19921875 52.09375 C37.63396484 52.64933594 37.06871094 53.20492187 36.48632812 53.77734375 C35.89271484 54.34582031 35.29910156 54.91429687 34.6875 55.5 C34.10548828 56.06847656 33.52347656 56.63695312 32.92382812 57.22265625 C31.79436113 58.32526163 30.66023663 59.42312084 29.52099609 60.515625 C28.23167636 61.77390173 26.9942501 63.08501215 25.76953125 64.40625 C24 66 24 66 21 66 C13.61954317 65.34395939 8.7884873 61.47255692 4 56 C3.85182831 55.35806198 3.70365662 54.71612396 3.55099487 54.05473328 C2.87107188 51.51920986 1.84566759 50.4712644 -0.00341797 48.62426758 C-0.63432343 47.98713333 -1.26522888 47.34999908 -1.91525269 46.69355774 C-2.60064117 46.017379 -3.28602966 45.34120026 -3.9921875 44.64453125 C-4.69393097 43.94228928 -5.39567444 43.2400473 -6.11868286 42.51652527 C-7.60303697 41.0345106 -9.09108272 39.55618555 -10.58251953 38.08129883 C-12.8679736 35.81945381 -15.13980448 33.54457122 -17.41015625 31.26757812 C-18.85337578 29.82993478 -20.29736073 28.39305932 -21.7421875 26.95703125 C-22.42352753 26.27477982 -23.10486755 25.59252838 -23.80685425 24.88960266 C-24.44406403 24.2619249 -25.0812738 23.63424713 -25.73779297 22.98754883 C-26.29659149 22.4333577 -26.85539001 21.87916656 -27.43112183 21.30818176 C-29.08180585 19.77013491 -29.08180585 19.77013491 -32 19 C-30.83276367 17.03808594 -30.83276367 17.03808594 -29 15 C-26.5480957 14.45410156 -26.5480957 14.45410156 -23.67578125 14.390625 C-22.64775391 14.35839844 -21.61972656 14.32617188 -20.56054688 14.29296875 C-19.48869141 14.27878906 -18.41683594 14.26460937 -17.3125 14.25 C-15.68731445 14.20552734 -15.68731445 14.20552734 -14.02929688 14.16015625 C-11.35278941 14.08941156 -8.67715521 14.03673844 -6 14 C-5.67 11.69 -5.34 9.38 -5 7 C-4.34 7 -3.68 7 -3 7 C-3.33 5.68 -3.66 4.36 -4 3 C-3.34 3 -2.68 3 -2 3 C-1.67 2.34 -1.34 1.68 -1 1 C-0.67 0.67 -0.34 0.34 0 0 Z M8 12 C9 14 9 14 9 14 Z M28 16 C29 18 29 18 29 18 Z M41 16 C41 16.33 41 16.66 41 17 C43.97 17 46.94 17 50 17 C50 16.67 50 16.34 50 16 C47.03 16 44.06 16 41 16 Z M13 23 C14 25 14 25 14 25 Z " fill="#0D6CF9" transform="translate(45,49)"/>
<path d="M0 0 C5.03683837 3.14802398 8.94621769 7.33657132 12.84375 11.77734375 C15.91582056 10.42749456 17.75889254 8.96897871 19.96875 6.46484375 C25.04239474 1.20450646 32.51185404 -3.03550954 39.91796875 -3.35546875 C46.31844358 -3.34162989 52.51906006 -3.23460664 58.84375 -2.22265625 C58.84375 -1.56265625 58.84375 -0.90265625 58.84375 -0.22265625 C60.45574012 1.29898203 60.45574012 1.29898203 62.53125 2.77734375 C63.55798828 3.55078125 63.55798828 3.55078125 64.60546875 4.33984375 C66.80693049 5.8743174 66.80693049 5.8743174 69.40625 6.68359375 C73.43039227 8.48929862 74.71560942 11.41871763 76.67578125 15.23828125 C79.83748632 24.81856483 79.33142115 38.72089282 74.8359375 47.81640625 C74.50851563 48.46351562 74.18109375 49.110625 73.84375 49.77734375 C73.51375 50.76734375 73.18375 51.75734375 72.84375 52.77734375 C69.41202625 53.92125167 66.746943 53.90679933 63.12890625 53.91015625 C62.15068153 53.91159134 62.15068153 53.91159134 61.1526947 53.91305542 C59.77505395 53.91373506 58.39740997 53.91189583 57.01977539 53.90771484 C54.91740674 53.9023721 52.81525256 53.90766262 50.71289062 53.9140625 C49.37239536 53.91340151 48.03190024 53.91211992 46.69140625 53.91015625 C45.47461182 53.90902832 44.25781738 53.90790039 43.00415039 53.90673828 C40.40958892 53.80051058 38.30479989 53.5471146 35.84375 52.77734375 C35.34875 49.31234375 35.34875 49.31234375 34.84375 45.77734375 C34.18375 45.77734375 33.52375 45.77734375 32.84375 45.77734375 C32.4415625 44.81828125 32.4415625 44.81828125 32.03125 43.83984375 C30.95707248 41.44602689 30.95707248 41.44602689 27.84375 40.77734375 C27.4725 41.98390625 27.4725 41.98390625 27.09375 43.21484375 C22.8650266 55.26670545 22.8650266 55.26670545 19.84375 56.77734375 C19.34875 57.76734375 19.34875 57.76734375 18.84375 58.77734375 C16.90625 61.40234375 16.90625 61.40234375 14.84375 63.77734375 C14.18375 63.77734375 13.52375 63.77734375 12.84375 63.77734375 C9.36401911 59.57266892 7.56829356 56.21142047 6.84375 50.77734375 C6.18375 50.77734375 5.52375 50.77734375 4.84375 50.77734375 C2.0419008 44.863517 -0.59928409 39.14674975 -2.15625 32.77734375 C-3.14625 32.77734375 -4.13625 32.77734375 -5.15625 32.77734375 C-5.65125 33.76734375 -5.65125 33.76734375 -6.15625 34.77734375 C-6.65125 35.29296875 -7.14625 35.80859375 -7.65625 36.33984375 C-9.87220424 39.9407694 -9.89862981 43.61988682 -10.15625 47.77734375 C-11.14625 48.10734375 -12.13625 48.43734375 -13.15625 48.77734375 C-13.74695014 50.72337649 -13.74695014 50.72337649 -14.15625 52.77734375 C-16.82135038 55.44244413 -18.81808143 56.70417504 -22.62988281 56.91259766 C-23.53061523 56.86022949 -24.43134766 56.80786133 -25.359375 56.75390625 C-26.3390625 56.70234375 -27.31875 56.65078125 -28.328125 56.59765625 C-29.85179687 56.50097656 -29.85179687 56.50097656 -31.40625 56.40234375 C-32.953125 56.31726562 -32.953125 56.31726562 -34.53125 56.23046875 C-37.07364205 56.08922475 -39.61501238 55.93783629 -42.15625 55.77734375 C-42.15625 55.11734375 -42.15625 54.45734375 -42.15625 53.77734375 C-43.14625 53.44734375 -44.13625 53.11734375 -45.15625 52.77734375 C-45.65125 51.29234375 -45.65125 51.29234375 -46.15625 49.77734375 C-46.80660814 48.43598008 -47.4725455 47.10202121 -48.15625 45.77734375 C-50.74678535 40.59627305 -50.34008912 35.62823097 -50.34375 29.96484375 C-50.35599609 28.97935547 -50.36824219 27.99386719 -50.38085938 26.97851562 C-50.3910868 21.90230236 -50.36467527 17.46540441 -48.15625 12.77734375 C-47.49625 12.44734375 -46.83625 12.11734375 -46.15625 11.77734375 C-45.82625 10.78734375 -45.49625 9.79734375 -45.15625 8.77734375 C-44.49625 8.77734375 -43.83625 8.77734375 -43.15625 8.77734375 C-43.15625 8.11734375 -43.15625 7.45734375 -43.15625 6.77734375 C-42.516875 6.67421875 -41.8775 6.57109375 -41.21875 6.46484375 C-40.538125 6.23796875 -39.8575 6.01109375 -39.15625 5.77734375 C-38.82625 4.78734375 -38.49625 3.79734375 -38.15625 2.77734375 C-36.34765625 2.21484375 -36.34765625 2.21484375 -34.15625 1.77734375 C-32.78533741 1.14582931 -31.43065037 0.47799288 -30.09375 -0.22265625 C-20.50149824 -5.23051129 -9.7060917 -4.50080865 0 0 Z M31.84375 0.77734375 C31.84375 1.43734375 31.84375 2.09734375 31.84375 2.77734375 C31.121875 2.88046875 30.4 2.98359375 29.65625 3.08984375 C23.76265858 4.53049943 20.48120208 8.02762915 16.58984375 12.44921875 C14.84375 13.77734375 14.84375 13.77734375 12.76953125 13.546875 C10.72672306 12.73058045 8.78272487 11.81608029 6.84375 10.77734375 C6.84375 10.11734375 6.84375 9.45734375 6.84375 8.77734375 C6.18375 8.77734375 5.52375 8.77734375 4.84375 8.77734375 C4.84375 8.11734375 4.84375 7.45734375 4.84375 6.77734375 C4.18375 6.77734375 3.52375 6.77734375 2.84375 6.77734375 C2.84375 6.11734375 2.84375 5.45734375 2.84375 4.77734375 C1.85375 4.77734375 0.86375 4.77734375 -0.15625 4.77734375 C-0.15625 4.11734375 -0.15625 3.45734375 -0.15625 2.77734375 C-11.3535276 -0.15448781 -22.61818775 -2.30230755 -33.15625 3.77734375 C-37.04156952 6.78579299 -40.42080485 9.67417602 -43.15625 13.77734375 C-43.15625 15.09734375 -43.15625 16.41734375 -43.15625 17.77734375 C-43.81625 17.77734375 -44.47625 17.77734375 -45.15625 17.77734375 C-48.45709421 26.38594545 -48.61235935 36.12359321 -45.15625 44.71484375 C-44.51613282 46.08176065 -43.86001267 47.44207976 -43.15625 48.77734375 C-42.49625 48.77734375 -41.83625 48.77734375 -41.15625 48.77734375 C-41.15625 49.43734375 -41.15625 50.09734375 -41.15625 50.77734375 C-33.23625 50.77734375 -25.31625 50.77734375 -17.15625 50.77734375 C-17.15625 49.78734375 -17.15625 48.79734375 -17.15625 47.77734375 C-16.49625 47.77734375 -15.83625 47.77734375 -15.15625 47.77734375 C-14.90875 46.78734375 -14.66125 45.79734375 -14.40625 44.77734375 C-13.37550165 41.12893952 -11.83000083 37.91649626 -10.05859375 34.57421875 C-9.02570308 32.62427182 -9.02570308 32.62427182 -8.15625 29.77734375 C-5.51625 29.77734375 -2.87625 29.77734375 -0.15625 29.77734375 C0.50375 31.09734375 1.16375 32.41734375 1.84375 33.77734375 C2.50375 33.77734375 3.16375 33.77734375 3.84375 33.77734375 C4.33875 37.73734375 4.33875 37.73734375 4.84375 41.77734375 C5.50375 41.77734375 6.16375 41.77734375 6.84375 41.77734375 C6.9675 42.49921875 7.09125 43.22109375 7.21875 43.96484375 C7.8342431 46.73456269 8.72819374 49.17437915 9.84375 51.77734375 C10.50375 51.77734375 11.16375 51.77734375 11.84375 51.77734375 C12.33875 55.24234375 12.33875 55.24234375 12.84375 58.77734375 C13.50375 58.77734375 14.16375 58.77734375 14.84375 58.77734375 C14.84375 57.45734375 14.84375 56.13734375 14.84375 54.77734375 C15.50375 54.77734375 16.16375 54.77734375 16.84375 54.77734375 C16.84375 53.45734375 16.84375 52.13734375 16.84375 50.77734375 C17.50375 50.77734375 18.16375 50.77734375 18.84375 50.77734375 C18.84375 49.45734375 18.84375 48.13734375 18.84375 46.77734375 C19.50375 46.77734375 20.16375 46.77734375 20.84375 46.77734375 C20.84375 45.45734375 20.84375 44.13734375 20.84375 42.77734375 C21.83375 42.44734375 22.82375 42.11734375 23.84375 41.77734375 C24.17375 40.12734375 24.50375 38.47734375 24.84375 36.77734375 C25.50375 36.77734375 26.16375 36.77734375 26.84375 36.77734375 C26.84375 36.11734375 26.84375 35.45734375 26.84375 34.77734375 C29.5703125 34.8046875 29.5703125 34.8046875 32.84375 35.77734375 C34.76479726 38.07431359 35.95242231 40.63997466 37.21875 43.33984375 C38.415 45.79421875 39.61125 48.24859375 40.84375 50.77734375 C50.08375 50.77734375 59.32375 50.77734375 68.84375 50.77734375 C68.84375 50.11734375 68.84375 49.45734375 68.84375 48.77734375 C69.50375 48.77734375 70.16375 48.77734375 70.84375 48.77734375 C74.26850963 42.81622749 75.46097593 38.55022663 75.28125 31.71484375 C75.28833984 30.95107422 75.29542969 30.18730469 75.30273438 29.40039062 C75.20601687 20.70325493 71.61888658 14.1822516 65.84375 7.77734375 C61.4431629 3.89874151 61.4431629 3.89874151 55.84375 2.77734375 C55.84375 2.11734375 55.84375 1.45734375 55.84375 0.77734375 C47.66344015 -2.06798142 40.02405985 -2.06798142 31.84375 0.77734375 Z M-47.15625 14.77734375 C-46.15625 16.77734375 -46.15625 16.77734375 -46.15625 16.77734375 Z M74.84375 16.77734375 C75.84375 18.77734375 75.84375 18.77734375 75.84375 18.77734375 Z M-49.15625 18.77734375 C-48.15625 20.77734375 -48.15625 20.77734375 -48.15625 20.77734375 Z M-6.15625 30.77734375 C-6.15625 31.10734375 -6.15625 31.43734375 -6.15625 31.77734375 C-4.50625 31.77734375 -2.85625 31.77734375 -1.15625 31.77734375 C-1.15625 31.44734375 -1.15625 31.11734375 -1.15625 30.77734375 C-2.80625 30.77734375 -4.45625 30.77734375 -6.15625 30.77734375 Z M26.84375 38.77734375 C26.84375 39.10734375 26.84375 39.43734375 26.84375 39.77734375 C28.49375 39.77734375 30.14375 39.77734375 31.84375 39.77734375 C31.84375 39.44734375 31.84375 39.11734375 31.84375 38.77734375 C30.19375 38.77734375 28.54375 38.77734375 26.84375 38.77734375 Z M25.84375 40.77734375 C26.84375 42.77734375 26.84375 42.77734375 26.84375 42.77734375 Z M-12.15625 44.77734375 C-11.15625 46.77734375 -11.15625 46.77734375 -11.15625 46.77734375 Z M23.84375 44.77734375 C24.84375 46.77734375 24.84375 46.77734375 24.84375 46.77734375 Z M21.84375 48.77734375 C22.84375 50.77734375 22.84375 50.77734375 22.84375 50.77734375 Z M19.84375 52.77734375 C20.84375 54.77734375 20.84375 54.77734375 20.84375 54.77734375 Z " fill="#2974DB" transform="translate(50.15625,6.22265625)"/>
<path d="M0 0 C1.67542976 0.28604898 3.34385343 0.61781233 5 1 C5.12375 1.94875 5.2475 2.8975 5.375 3.875 C5.71687177 7.08667191 5.71687177 7.08667191 8 9 C10.75566251 11.75566251 10.45934233 14.21539633 11 18 C11.66 18.66 12.32 19.32 13 20 C14.58971965 22.38457948 15.86741593 24.6304124 17.125 27.1875 C17.47820313 27.90292969 17.83140625 28.61835937 18.1953125 29.35546875 C18.46085937 29.89816406 18.72640625 30.44085938 19 31 C21.16666667 30.16666667 21.16666667 30.16666667 22 28 C22.515625 27.401875 23.03125 26.80375 23.5625 26.1875 C25.22352606 24.11388647 25.22352606 24.11388647 24.9375 21.6875 C25.03050632 17.6882281 26.88955417 15.36352304 29 12 C29.66 12 30.32 12 31 12 C31.144375 11.360625 31.28875 10.72125 31.4375 10.0625 C32 8 32 8 33 7 C34.99958364 6.95919217 37.00045254 6.95745644 39 7 C39.99 9.31 40.98 11.62 42 14 C50.25 14.33 58.5 14.66 67 15 C67.99 17.475 67.99 17.475 69 20 C68.26555664 20.40992187 67.53111328 20.81984375 66.77441406 21.2421875 C64.01237787 22.99215763 61.92035798 24.82124206 59.609375 27.125 C58.81789063 27.91390625 58.02640625 28.7028125 57.2109375 29.515625 C56.39882812 30.33546875 55.58671875 31.1553125 54.75 32 C53.92242187 32.81984375 53.09484375 33.6396875 52.2421875 34.484375 C51.45585938 35.27328125 50.66953125 36.0621875 49.859375 36.875 C49.14233398 37.59429687 48.42529297 38.31359375 47.68652344 39.0546875 C45.79044652 40.99114261 45.79044652 40.99114261 45 44 C43.515 44.495 43.515 44.495 42 45 C41.63660749 46.32545644 41.30653932 47.66025281 41 49 C39.7565918 50.58398437 39.7565918 50.58398437 38.19921875 52.09375 C37.63396484 52.64933594 37.06871094 53.20492187 36.48632812 53.77734375 C35.89271484 54.34582031 35.29910156 54.91429687 34.6875 55.5 C34.10548828 56.06847656 33.52347656 56.63695312 32.92382812 57.22265625 C31.79436113 58.32526163 30.66023663 59.42312084 29.52099609 60.515625 C28.23167636 61.77390173 26.9942501 63.08501215 25.76953125 64.40625 C24 66 24 66 21 66 C13.61954317 65.34395939 8.7884873 61.47255692 4 56 C3.85182831 55.35806198 3.70365662 54.71612396 3.55099487 54.05473328 C2.87107188 51.51920986 1.84566759 50.4712644 -0.00341797 48.62426758 C-0.63432343 47.98713333 -1.26522888 47.34999908 -1.91525269 46.69355774 C-2.60064117 46.017379 -3.28602966 45.34120026 -3.9921875 44.64453125 C-4.69393097 43.94228928 -5.39567444 43.2400473 -6.11868286 42.51652527 C-7.60303697 41.0345106 -9.09108272 39.55618555 -10.58251953 38.08129883 C-12.8679736 35.81945381 -15.13980448 33.54457122 -17.41015625 31.26757812 C-18.85337578 29.82993478 -20.29736073 28.39305932 -21.7421875 26.95703125 C-22.42352753 26.27477982 -23.10486755 25.59252838 -23.80685425 24.88960266 C-24.44406403 24.2619249 -25.0812738 23.63424713 -25.73779297 22.98754883 C-26.29659149 22.4333577 -26.85539001 21.87916656 -27.43112183 21.30818176 C-29.08180585 19.77013491 -29.08180585 19.77013491 -32 19 C-30.83276367 17.03808594 -30.83276367 17.03808594 -29 15 C-26.5480957 14.45410156 -26.5480957 14.45410156 -23.67578125 14.390625 C-22.64775391 14.35839844 -21.61972656 14.32617188 -20.56054688 14.29296875 C-19.48869141 14.27878906 -18.41683594 14.26460937 -17.3125 14.25 C-15.68731445 14.20552734 -15.68731445 14.20552734 -14.02929688 14.16015625 C-11.35278941 14.08941156 -8.67715521 14.03673844 -6 14 C-5.67 11.69 -5.34 9.38 -5 7 C-4.34 7 -3.68 7 -3 7 C-3.33 5.68 -3.66 4.36 -4 3 C-3.34 3 -2.68 3 -2 3 C-1.67 2.34 -1.34 1.68 -1 1 C-0.67 0.67 -0.34 0.34 0 0 Z M1 7 C0.67 7.99 0.34 8.98 0 10 C-0.66 10 -1.32 10 -2 10 C-2.309375 11.11375 -2.61875 12.2275 -2.9375 13.375 C-4 17 -4 17 -5 19 C-13.415 19.495 -13.415 19.495 -22 20 C-22.2236068 22.9254644 -22.2236068 22.9254644 -21 25 C-20.34 25 -19.68 25 -19 25 C-19 25.66 -19 26.32 -19 27 C-18.34 27 -17.68 27 -17 27 C-17 27.66 -17 28.32 -17 29 C-15.24478052 30.73693158 -15.24478052 30.73693158 -13.0625 32.5 C-9.10120846 35.79758308 -9.10120846 35.79758308 -8 38 C-7.34 38 -6.68 38 -6 38 C-5.78472656 38.54398438 -5.56945312 39.08796875 -5.34765625 39.6484375 C-3.53620359 42.80929113 -1.04503977 45.12763796 1.5625 47.625 C6.88006757 52.76013514 6.88006757 52.76013514 8 55 C8.66 55 9.32 55 10 55 C10.2475 55.5775 10.495 56.155 10.75 56.75 C12.2567975 59.46223549 13.51243613 61.11751924 16 63 C19.36948329 64.00131485 19.36948329 64.00131485 23 63 C25.73319585 60.63394986 27.83606245 57.88351196 30 55 C32.87232835 51.37399949 35.80172163 48.28571164 39.42578125 45.3828125 C41.80518912 43.29271229 43.74793972 40.87220594 45.7890625 38.45703125 C47.58703285 36.45893346 49.41623903 34.57672017 51.3359375 32.69921875 C51.92753662 32.12042969 52.51913574 31.54164062 53.12866211 30.9453125 C54.32376741 29.78391984 55.52502447 28.6288204 56.73266602 27.48046875 C58.21070667 26.04197795 59.61210059 24.52564582 61 23 C61 22.01 61 21.02 61 20 C54.07 19.67 47.14 19.34 40 19 C39.01 16.69 38.02 14.38 37 12 C35.10309406 12.0291637 35.10309406 12.0291637 33 13 C31.03596831 15.77720118 31.03596831 15.77720118 29.375 19.1875 C28.78460938 20.31542969 28.19421875 21.44335938 27.5859375 22.60546875 C26.13999897 25.70034704 25.04805044 28.7548897 24 32 C23.505 32.495 23.505 32.495 23 33 C16.76923077 32.53846154 16.76923077 32.53846154 14.125 30.6875 C12.86920188 28.80380283 12.38295049 27.22111286 12 25 C11.34 25 10.68 25 10 25 C9.7525 24.05125 9.505 23.1025 9.25 22.125 C8.31979784 18.90557692 7.23918405 15.76282414 6.0625 12.625 C5.74410156 11.77164063 5.42570312 10.91828125 5.09765625 10.0390625 C4.11633021 7.65797235 4.11633021 7.65797235 1 7 Z M8 12 C9 14 9 14 9 14 Z M28 16 C29 18 29 18 29 18 Z M41 16 C41 16.33 41 16.66 41 17 C43.97 17 46.94 17 50 17 C50 16.67 50 16.34 50 16 C47.03 16 44.06 16 41 16 Z M13 23 C14 25 14 25 14 25 Z " fill="#2972D5" transform="translate(45,49)"/>
<path d="M0 0 C1.67542976 0.28604898 3.34385343 0.61781233 5 1 C5.12375 1.94875 5.2475 2.8975 5.375 3.875 C5.71687177 7.08667191 5.71687177 7.08667191 8 9 C10.75566251 11.75566251 10.45934233 14.21539633 11 18 C11.66 18.66 12.32 19.32 13 20 C14.58971965 22.38457948 15.86741593 24.6304124 17.125 27.1875 C17.47820313 27.90292969 17.83140625 28.61835937 18.1953125 29.35546875 C18.46085937 29.89816406 18.72640625 30.44085938 19 31 C21.16666667 30.16666667 21.16666667 30.16666667 22 28 C22.515625 27.401875 23.03125 26.80375 23.5625 26.1875 C25.22352606 24.11388647 25.22352606 24.11388647 24.9375 21.6875 C25.03050632 17.6882281 26.88955417 15.36352304 29 12 C29.66 12 30.32 12 31 12 C31.144375 11.360625 31.28875 10.72125 31.4375 10.0625 C32 8 32 8 33 7 C34.99958364 6.95919217 37.00045254 6.95745644 39 7 C39.99 9.31 40.98 11.62 42 14 C50.25 14.33 58.5 14.66 67 15 C67.99 17.475 67.99 17.475 69 20 C67.02 20.66 65.04 21.32 63 22 C63.99 20.515 63.99 20.515 65 19 C56.09 18.67 47.18 18.34 38 18 C37.505 15.03 37.505 15.03 37 12 C32.85963833 13.38012056 32.43334644 15.37254515 30.4375 19.1875 C29.83808594 20.31542969 29.23867187 21.44335938 28.62109375 22.60546875 C26.94690807 25.92743958 26.94690807 25.92743958 25.91015625 29.30078125 C25 32 25 32 23 34 C19.10300292 33.85566677 16.72005789 33.53542766 13.5625 31.1875 C12 29 12 29 12 25 C11.34 25 10.68 25 10 25 C9.566875 23.96875 9.13375 22.9375 8.6875 21.875 C7.65386422 19.43857281 6.55523754 17.15989314 5.3125 14.8125 C4 12 4 12 4 8 C3.01 8 2.02 8 1 8 C-2.07821315 11.26477153 -3.29192243 13.72980608 -5 18 C-12.59 18 -20.18 18 -28 18 C-28.33 17.01 -28.66 16.02 -29 15 C-21.41 14.67 -13.82 14.34 -6 14 C-5.67 11.69 -5.34 9.38 -5 7 C-4.34 7 -3.68 7 -3 7 C-3.33 5.68 -3.66 4.36 -4 3 C-3.34 3 -2.68 3 -2 3 C-1.67 2.34 -1.34 1.68 -1 1 C-0.67 0.67 -0.34 0.34 0 0 Z M8 12 C9 14 9 14 9 14 Z M28 16 C29 18 29 18 29 18 Z M41 16 C41 16.33 41 16.66 41 17 C43.97 17 46.94 17 50 17 C50 16.67 50 16.34 50 16 C47.03 16 44.06 16 41 16 Z M13 23 C14 25 14 25 14 25 Z " fill="#2A76DE" transform="translate(45,49)"/>
<path d="M0 0 C1.125 3.75 1.125 3.75 0 6 C-0.67128965 14.70475602 -0.36096593 21.82817289 3.125 29.92578125 C4 32 4 32 4 34 C12.58 34 21.16 34 30 34 C30 35.32 30 36.64 30 38 C26.52300537 38.80866672 23.47837556 39.07549313 19.91796875 38.87890625 C18.98662109 38.83056641 18.05527344 38.78222656 17.09570312 38.73242188 C16.13599609 38.67634766 15.17628906 38.62027344 14.1875 38.5625 C13.20845703 38.51029297 12.22941406 38.45808594 11.22070312 38.40429688 C8.8134391 38.27512661 6.40664362 38.14018357 4 38 C4 37.34 4 36.68 4 36 C3.01 35.67 2.02 35.34 1 35 C0.505 33.515 0.505 33.515 0 32 C-0.65035814 30.65863633 -1.3162955 29.32467746 -2 28 C-4.08737883 23.82524234 -4.18315465 20.06261338 -4.1875 15.5 C-4.19974609 14.82324219 -4.21199219 14.14648438 -4.22460938 13.44921875 C-4.23559396 9.73642956 -4.11344616 8.17016924 -2 5 C-1.30686092 3.34416775 -0.63525576 1.67889021 0 0 Z " fill="#2B71C9" transform="translate(4,24)"/>
<path d="M0 0 C2.625 -0.625 2.625 -0.625 6 0 C9.98775398 4.83023721 12.03058221 10.09174663 14 16 C23.24 16 32.48 16 42 16 C42 15.34 42 14.68 42 14 C42.66 14 43.32 14 44 14 C44.33 13.01 44.66 12.02 45 11 C46.231394 13.46278801 46.07159196 15.2795055 46 18 C42.52217417 19.15927528 39.81196743 19.11313066 36.14453125 19.09765625 C35.48289474 19.0962413 34.82125824 19.09482635 34.13957214 19.09336853 C32.03050172 19.08777996 29.92153823 19.07522965 27.8125 19.0625 C26.38086091 19.05748352 24.94922015 19.05292087 23.51757812 19.04882812 C20.01164461 19.038666 16.50594173 19.01908861 13 19 C10.36 13.72 7.72 8.44 5 3 C2.69 3.66 0.38 4.32 -2 5 C-2 4.01 -2 3.02 -2 2 C-1.34 2 -0.68 2 0 2 C0 1.34 0 0.68 0 0 Z " fill="#1C6CDC" transform="translate(77,41)"/>
<path d="M0 0 C1.32 0.33 2.64 0.66 4 1 C3.54363464 2.396478 3.08480512 3.7921508 2.625 5.1875 C2.24214844 6.35345703 2.24214844 6.35345703 1.8515625 7.54296875 C0.98008898 10.05744968 -0.0116485 12.52912126 -1 15 C-8.59 15 -16.18 15 -24 15 C-24.33 14.01 -24.66 13.02 -25 12 C-17.41 11.67 -9.82 11.34 -2 11 C-1.67 8.69 -1.34 6.38 -1 4 C-0.34 4 0.32 4 1 4 C0.67 2.68 0.34 1.36 0 0 Z " fill="#3684E6" transform="translate(41,52)"/>
<path d="M0 0 C1.231394 2.46278801 1.07159196 4.2795055 1 7 C-2.47782583 8.15927528 -5.18803257 8.11313066 -8.85546875 8.09765625 C-9.84792351 8.09553383 -9.84792351 8.09553383 -10.86042786 8.09336853 C-12.96949828 8.08777996 -15.07846177 8.07522965 -17.1875 8.0625 C-18.61913909 8.05748352 -20.05077985 8.05292087 -21.48242188 8.04882812 C-24.98831588 8.0378143 -28.4941475 8.02055755 -32 8 C-32 7.34 -32 6.68 -32 6 C-22.43 6 -12.86 6 -3 6 C-3 5.01 -3 4.02 -3 3 C-2.34 3 -1.68 3 -1 3 C-0.67 2.01 -0.34 1.02 0 0 Z " fill="#2268C1" transform="translate(122,52)"/>
<path d="M0 0 C8.91 0 17.82 0 27 0 C25.35 1.65 23.7 3.3 22 5 C22 4.01 22 3.02 22 2 C15.07 2 8.14 2 1 2 C0.67 1.34 0.34 0.68 0 0 Z " fill="#236AC9" transform="translate(84,67)"/>
<path d="M0 0 C1.125 3.75 1.125 3.75 0 6 C-0.0982189 8.41502939 -0.12973926 10.83297881 -0.125 13.25 C-0.12757812 14.55453125 -0.13015625 15.8590625 -0.1328125 17.203125 C-0.01490662 20.57384595 0.35349566 23.69564447 1 27 C-1.46278801 24.53721199 -1.99771255 22.29323018 -3 19 C-3.33 19 -3.66 19 -4 19 C-4.05410687 17.22950311 -4.09284119 15.45853151 -4.125 13.6875 C-4.14820313 12.70136719 -4.17140625 11.71523438 -4.1953125 10.69921875 C-4 8 -4 8 -2 5 C-1.30686092 3.34416775 -0.63525576 1.67889021 0 0 Z " fill="#206CD2" transform="translate(4,24)"/>
<path d="M0 0 C0.33 0 0.66 0 1 0 C1.22910406 2.74924867 1.18410235 4.59616258 0.03125 7.125 C-3.1477454 10.05945729 -6.50294464 9.6744789 -10.6875 9.75 C-11.48478516 9.77964844 -12.28207031 9.80929688 -13.10351562 9.83984375 C-15.06846749 9.91044082 -17.03423977 9.95749708 -19 10 C-18.67 11.32 -18.34 12.64 -18 14 C-19.7074998 12.71937515 -21.37373596 11.38232443 -23 10 C-23 9.34 -23 8.68 -23 8 C-13.1 7.505 -13.1 7.505 -3 7 C-2.01 4.69 -1.02 2.38 0 0 Z " fill="#1A6ADB" transform="translate(42,60)"/>
<path d="M0 0 C9.70618661 -0.16831537 19.32153574 0.35782702 29 1 C29 2.32 29 3.64 29 5 C27.35 5.33 25.7 5.66 24 6 C24.66 5.01 25.32 4.02 26 3 C13.13 2.505 13.13 2.505 0 2 C0 1.34 0 0.68 0 0 Z " fill="#3880D5" transform="translate(84,65)"/>
<path d="M0 0 C1.485 0.99 1.485 0.99 3 2 C3.3984375 4.49609375 3.3984375 4.49609375 3.375 7.4375 C3.38273438 8.40558594 3.39046875 9.37367187 3.3984375 10.37109375 C3 13 3 13 0 16 C0 10.72 0 5.44 0 0 Z " fill="#226CD3" transform="translate(125,30)"/>
<path d="M0 0 C0.66 0.33 1.32 0.66 2 1 C-1.96 4.96 -5.92 8.92 -10 13 C-10 8.41771462 -7.08388033 6.1816619 -4 3 C-1.625 1.0625 -1.625 1.0625 0 0 Z " fill="#116BEF" transform="translate(18,9)"/>
<path d="M0 0 C9.9 0 19.8 0 30 0 C30 0.33 30 0.66 30 1 C20.1 1 10.2 1 0 1 C0 0.67 0 0.34 0 0 Z " fill="#2667B7" transform="translate(90,61)"/>
<path d="M0 0 C0.66 0.66 1.32 1.32 2 2 C1.154375 2.515625 0.30875 3.03125 -0.5625 3.5625 C-3.99825935 5.82308275 -6.68855484 8.61205429 -9.484375 11.609375 C-11 13 -11 13 -13 13 C-13 11 -13 11 -11.42578125 9.4140625 C-10.72839844 8.82367188 -10.03101562 8.23328125 -9.3125 7.625 C-8.22388672 6.69880859 -8.22388672 6.69880859 -7.11328125 5.75390625 C-4.76550888 3.80538537 -2.40435225 1.8784002 0 0 Z " fill="#357CD9" transform="translate(76,8)"/>
<path d="M0 0 C1.32 0.33 2.64 0.66 4 1 C3.2884375 2.546875 3.2884375 2.546875 2.5625 4.125 C1.15477612 7.38534162 0.43164502 10.46051083 0 14 C-0.33 14 -0.66 14 -1 14 C-1.22331199 12.41870971 -1.42804644 10.83478911 -1.625 9.25 C-1.74101562 8.36828125 -1.85703125 7.4865625 -1.9765625 6.578125 C-2.00207817 3.77140122 -1.44843844 2.36615134 0 0 Z M-1 4 C0 6 0 6 0 6 Z " fill="#347CDD" transform="translate(2,21)"/>
<path d="M0 0 C0.33 0.99 0.66 1.98 1 3 C-1.64 5.31 -4.28 7.62 -7 10 C-7.66 9.67 -8.32 9.34 -9 9 C-6.03 6.03 -3.06 3.06 0 0 Z " fill="#186BE3" transform="translate(74,11)"/>
<path d="M0 0 C0 3.47289374 -0.64169543 5.80798426 -2 9 C-4.125 10.375 -4.125 10.375 -6 11 C-5.33333333 9.33333333 -4.66666667 7.66666667 -4 6 C-3.505 4.63875 -3.505 4.63875 -3 3.25 C-2 1 -2 1 0 0 Z " fill="#2570D8" transform="translate(72,72)"/>
<path d="M0 0 C0.66 0.99 1.32 1.98 2 3 C1.34 3 0.68 3 0 3 C-0.99 5.97 -1.98 8.94 -3 12 C-3.33 12 -3.66 12 -4 12 C-4.50423019 6.70558305 -3.18923033 4.18586481 0 0 Z " fill="#1F6BD6" transform="translate(39,42)"/>
<path d="M0 0 C-1.49097658 3.7952131 -3.75700849 5.61042731 -7 8 C-6.44414399 4.1090079 -4.34122117 0 0 0 Z " fill="#146AE9" transform="translate(76,101)"/>
<path d="M0 0 C1.98 0 3.96 0 6 0 C6 0.66 6 1.32 6 2 C3 4 3 4 0 4 C0 2.68 0 1.36 0 0 Z " fill="#3774C5" transform="translate(78,56)"/>
<path d="M0 0 C-0.99 0.495 -0.99 0.495 -2 1 C-2 1.66 -2 2.32 -2 3 C-2.99 3.33 -3.98 3.66 -5 4 C-5.66 2.68 -6.32 1.36 -7 0 C-4.3333581 -1.33332095 -2.83319697 -0.67102033 0 0 Z " fill="#3571C1" transform="translate(50,50)"/>
<path d="M0 0 C1.231394 2.46278801 1.07159196 4.2795055 1 7 C-0.32 7 -1.64 7 -3 7 C-3 5.68 -3 4.36 -3 3 C-2.34 3 -1.68 3 -1 3 C-0.67 2.01 -0.34 1.02 0 0 Z " fill="#276ED0" transform="translate(122,52)"/>
<path d="M0 0 C4.62 0 9.24 0 14 0 C14 0.33 14 0.66 14 1 C9.38 1 4.76 1 0 1 C0 0.67 0 0.34 0 0 Z " fill="#1471F6" transform="translate(27,1)"/>
<path d="M0 0 C0.33 0 0.66 0 1 0 C1 3.63 1 7.26 1 11 C0.67 11 0.34 11 0 11 C0 7.37 0 3.74 0 0 Z " fill="#3378D4" transform="translate(129,32)"/>
<path d="M0 0 C3.3 0 6.6 0 10 0 C10 0.33 10 0.66 10 1 C6.7 1 3.4 1 0 1 C0 0.67 0 0.34 0 0 Z " fill="#1572F6" transform="translate(91,1)"/>
<path d="M0 0 C0.99 0.33 1.98 0.66 3 1 C1.68 1.99 0.36 2.98 -1 4 C-1.66 3.67 -2.32 3.34 -3 3 C-2.01 2.01 -1.02 1.02 0 0 Z " fill="#2B78E1" transform="translate(16,5)"/>
<path d="M0 0 C1.32 0.33 2.64 0.66 4 1 C3.67 1.66 3.34 2.32 3 3 C2.01 2.01 1.02 1.02 0 0 Z " fill="#2D78DF" transform="translate(111,6)"/>
<path d="M0 0 C2.125 0.375 2.125 0.375 4 1 C2.02 1.33 0.04 1.66 -2 2 C-1.34 1.34 -0.68 0.68 0 0 Z " fill="#297EF2" transform="translate(23,2)"/>
<path d="M0 0 C0.33 0 0.66 0 1 0 C1 1.65 1 3.3 1 5 C0.67 5 0.34 5 0 5 C0 3.35 0 1.7 0 0 Z " fill="#2B75DC" transform="translate(128,43)"/>
<path d="M0 0 C0.99 0.33 1.98 0.66 3 1 C1.68 1.33 0.36 1.66 -1 2 C-0.67 1.34 -0.34 0.68 0 0 Z " fill="#2C7CEB" transform="translate(78,4)"/>
<path d="M0 0 C4 1 4 1 4 1 Z " fill="#2E72D2" transform="translate(62,116)"/>
<path d="M0 0 C1 4 1 4 1 4 Z " fill="#2A76DF" transform="translate(128,28)"/>
<path d="M0 0 C3 1 3 1 3 1 Z " fill="#156EF0" transform="translate(18,79)"/>
<path d="M0 0 C0.99 0.495 0.99 0.495 2 1 C1.01 1.495 1.01 1.495 0 2 C0 1.34 0 0.68 0 0 Z " fill="#3374CC" transform="translate(6,60)"/>
<path d="" fill="#2873DA" transform="translate(0,0)"/>
<path d="M0 0 C0.66 0 1.32 0 2 0 C1.67 0.66 1.34 1.32 1 2 C0.67 1.34 0.34 0.68 0 0 Z " fill="#2871D8" transform="translate(57,11)"/>
<path d="M0 0 C0.66 0 1.32 0 2 0 C1.67 0.66 1.34 1.32 1 2 C0.67 1.34 0.34 0.68 0 0 Z " fill="#2874DE" transform="translate(116,10)"/>
<path d="M0 0 C3 1 3 1 3 1 Z " fill="#337EE5" transform="translate(104,3)"/>
<path d="M0 0 C3 1 3 1 3 1 Z " fill="#287AEB" transform="translate(81,3)"/>
<path d="M0 0 C3 1 3 1 3 1 Z " fill="#357EE0" transform="translate(44,3)"/>
<path d="M0 0 C3 1 3 1 3 1 Z " fill="#3385F6" transform="translate(101,2)"/>
<path d="M0 0 C3 1 3 1 3 1 Z " fill="#2B80F5" transform="translate(84,2)"/>
<path d="M0 0 C3 1 3 1 3 1 Z " fill="#3686F5" transform="translate(41,2)"/>
<path d="M0 0 C3 1 3 1 3 1 Z " fill="#1471F6" transform="translate(87,1)"/>
<path d="M0 0 C2 1 2 1 2 1 Z " fill="#286FD5" transform="translate(66,115)"/>
<path d="M0 0 C2 1 2 1 2 1 Z " fill="#2D73D5" transform="translate(60,115)"/>
<path d="" fill="#3079DD" transform="translate(0,0)"/>
<path d="" fill="#307BE1" transform="translate(0,0)"/>
<path d="" fill="#3079DC" transform="translate(0,0)"/>
<path d="" fill="#3071CC" transform="translate(0,0)"/>
<path d="" fill="#2B75DC" transform="translate(0,0)"/>
<path d="" fill="#2E79E1" transform="translate(0,0)"/>
<path d="" fill="#2B74DA" transform="translate(0,0)"/>
<path d="" fill="#2A74DB" transform="translate(0,0)"/>
<path d="" fill="#2873D9" transform="translate(0,0)"/>
<path d="" fill="#3982E6" transform="translate(0,0)"/>
<path d="" fill="#3078DB" transform="translate(0,0)"/>
<path d="" fill="#2D76D9" transform="translate(0,0)"/>
<path d="" fill="#156FF2" transform="translate(0,0)"/>
<path d="" fill="#2B77DE" transform="translate(0,0)"/>
<path d="" fill="#2C77DD" transform="translate(0,0)"/>
<path d="" fill="#2B75DB" transform="translate(0,0)"/>
<path d="" fill="#2B75DA" transform="translate(0,0)"/>
<path d="" fill="#2F7BE0" transform="translate(0,0)"/>
<path d="M0 0 C2 1 2 1 2 1 Z " fill="#1E74F1" transform="translate(79,54)"/>
<path d="" fill="#2C73D6" transform="translate(0,0)"/>
<path d="" fill="#2773DA" transform="translate(0,0)"/>
<path d="" fill="#2C76DB" transform="translate(0,0)"/>
<path d="" fill="#2B76DD" transform="translate(0,0)"/>
<path d="" fill="#2A74DA" transform="translate(0,0)"/>
<path d="M0 0 C2 1 2 1 2 1 Z " fill="#1E7AF6" transform="translate(79,48)"/>
<path d="" fill="#2975DC" transform="translate(0,0)"/>
<path d="" fill="#2974DB" transform="translate(0,0)"/>
<path d="M0 0 C2 1 2 1 2 1 Z " fill="#2D77DC" transform="translate(63,17)"/>
<path d="M0 0 C2 1 2 1 2 1 Z " fill="#2972D3" transform="translate(74,7)"/>
<path d="M0 0 C2 1 2 1 2 1 Z " fill="#327BDE" transform="translate(109,5)"/>
<path d="M0 0 C2 1 2 1 2 1 Z " fill="#367EDF" transform="translate(49,5)"/>
<path d="M0 0 C2 1 2 1 2 1 Z " fill="#337BE0" transform="translate(47,4)"/>
<path d="M0 0 C2 1 2 1 2 1 Z " fill="#3280E9" transform="translate(19,4)"/>
<path d="" fill="#2A73D6" transform="translate(0,0)"/>
<path d="" fill="#2B75DC" transform="translate(0,0)"/>
<path d="" fill="#2975DD" transform="translate(0,0)"/>
<path d="" fill="#2A80F7" transform="translate(0,0)"/>
<path d="" fill="#216CD4" transform="translate(0,0)"/>
<path d="" fill="#226DD4" transform="translate(0,0)"/>
<path d="" fill="#226ED4" transform="translate(0,0)"/>
<path d="" fill="#2570D6" transform="translate(0,0)"/>
<path d="" fill="#2772D8" transform="translate(0,0)"/>
<path d="" fill="#2A74D9" transform="translate(0,0)"/>
<path d="" fill="#2973D9" transform="translate(0,0)"/>
<path d="" fill="#2772D8" transform="translate(0,0)"/>
<path d="" fill="#1774F4" transform="translate(0,0)"/>
<path d="" fill="#2672DD" transform="translate(0,0)"/>
<path d="" fill="#2570D9" transform="translate(0,0)"/>
<path d="" fill="#166CEA" transform="translate(0,0)"/>
<path d="" fill="#2571DB" transform="translate(0,0)"/>
<path d="" fill="#246FD8" transform="translate(0,0)"/>
<path d="" fill="#246FD8" transform="translate(0,0)"/>
<path d="" fill="#236FD7" transform="translate(0,0)"/>
<path d="" fill="#2672D5" transform="translate(0,0)"/>
<path d="" fill="#206DD8" transform="translate(0,0)"/>
<path d="" fill="#246FD8" transform="translate(0,0)"/>
<path d="" fill="#206ED9" transform="translate(0,0)"/>
<path d="" fill="#236FD7" transform="translate(0,0)"/>
<path d="" fill="#206EDB" transform="translate(0,0)"/>
<path d="" fill="#2570D9" transform="translate(0,0)"/>
<path d="" fill="#216FDC" transform="translate(0,0)"/>
<path d="" fill="#2671DA" transform="translate(0,0)"/>
<path d="" fill="#2B78E1" transform="translate(0,0)"/>
<path d="" fill="#156EF0" transform="translate(0,0)"/>
<path d="" fill="#2370DD" transform="translate(0,0)"/>
<path d="" fill="#2773DD" transform="translate(0,0)"/>
<path d="" fill="#2370DD" transform="translate(0,0)"/>
<path d="" fill="#2773DD" transform="translate(0,0)"/>
<path d="" fill="#156FF2" transform="translate(0,0)"/>
<path d="" fill="#2370DE" transform="translate(0,0)"/>
<path d="" fill="#2773DE" transform="translate(0,0)"/>
<path d="" fill="#1467E0" transform="translate(0,0)"/>
<path d="" fill="#226FDD" transform="translate(0,0)"/>
<path d="" fill="#2773DE" transform="translate(0,0)"/>
<path d="" fill="#226FDD" transform="translate(0,0)"/>
<path d="" fill="#2975E0" transform="translate(0,0)"/>
<path d="" fill="#226FDD" transform="translate(0,0)"/>
<path d="" fill="#2B76E1" transform="translate(0,0)"/>
<path d="" fill="#226FDD" transform="translate(0,0)"/>
<path d="" fill="#2C79E5" transform="translate(0,0)"/>
<path d="" fill="#226EDD" transform="translate(0,0)"/>
<path d="" fill="#2A79E6" transform="translate(0,0)"/>
<path d="" fill="#2D79E4" transform="translate(0,0)"/>
<path d="" fill="#226EDD" transform="translate(0,0)"/>
<path d="" fill="#2E7AE5" transform="translate(0,0)"/>
<path d="" fill="#236FDE" transform="translate(0,0)"/>
<path d="" fill="#2E79E4" transform="translate(0,0)"/>
<path d="" fill="#1570F3" transform="translate(0,0)"/>
<path d="" fill="#2571DF" transform="translate(0,0)"/>
<path d="" fill="#2D78E4" transform="translate(0,0)"/>
<path d="" fill="#2571DF" transform="translate(0,0)"/>
<path d="" fill="#2C77E2" transform="translate(0,0)"/>
<path d="" fill="#2773E0" transform="translate(0,0)"/>
<path d="" fill="#146FF3" transform="translate(0,0)"/>
<path d="" fill="#2C76E1" transform="translate(0,0)"/>
<path d="" fill="#2773DF" transform="translate(0,0)"/>
<path d="" fill="#2C76E0" transform="translate(0,0)"/>
<path d="" fill="#2872DD" transform="translate(0,0)"/>
<path d="" fill="#2D76DD" transform="translate(0,0)"/>
<path d="" fill="#2B71D5" transform="translate(0,0)"/>
<path d="" fill="#3A79D0" transform="translate(0,0)"/>
<path d="" fill="#3075D2" transform="translate(0,0)"/>
<path d="" fill="#3270C2" transform="translate(0,0)"/>
<path d="" fill="#3C74BC" transform="translate(0,0)"/>
<path d="" fill="#1C79F7" transform="translate(0,0)"/>
<path d="" fill="#3B78CA" transform="translate(0,0)"/>
<path d="" fill="#3476D2" transform="translate(0,0)"/>
<path d="" fill="#156FF2" transform="translate(0,0)"/>
<path d="" fill="#2D6EC5" transform="translate(0,0)"/>
<path d="" fill="#207AF7" transform="translate(0,0)"/>
<path d="" fill="#286BC4" transform="translate(0,0)"/>
<path d="" fill="#166FF2" transform="translate(0,0)"/>
<path d="" fill="#246FD8" transform="translate(0,0)"/>
<path d="" fill="#2871D7" transform="translate(0,0)"/>
<path d="" fill="#1571F5" transform="translate(0,0)"/>
<path d="" fill="#2E79DD" transform="translate(0,0)"/>
<path d="" fill="#317CE2" transform="translate(0,0)"/>
<path d="" fill="#1774F5" transform="translate(0,0)"/>
<path d="" fill="#1971F0" transform="translate(0,0)"/>
<path d="" fill="#156EF0" transform="translate(0,0)"/>
<path d="" fill="#347DE0" transform="translate(0,0)"/>
<path d="" fill="#2872D9" transform="translate(0,0)"/>
<path d="" fill="#367FDF" transform="translate(0,0)"/>
<path d="" fill="#2872D8" transform="translate(0,0)"/>
<path d="" fill="#2E77D8" transform="translate(0,0)"/>
<path d="" fill="#2872D8" transform="translate(0,0)"/>
<path d="" fill="#146FF3" transform="translate(0,0)"/>
<path d="" fill="#266FD0" transform="translate(0,0)"/>
<path d="" fill="#2872D8" transform="translate(0,0)"/>
<path d="" fill="#256FD7" transform="translate(0,0)"/>
<path d="" fill="#2B74D4" transform="translate(0,0)"/>
<path d="" fill="#3078DB" transform="translate(0,0)"/>
<path d="" fill="#337ADA" transform="translate(0,0)"/>
<path d="" fill="#2D76DA" transform="translate(0,0)"/>
<path d="" fill="#327BDF" transform="translate(0,0)"/>
<path d="" fill="#2974DE" transform="translate(0,0)"/>
<path d="" fill="#2B77E1" transform="translate(0,0)"/>
<path d="" fill="#3079E1" transform="translate(0,0)"/>
<path d="" fill="#3282F3" transform="translate(0,0)"/>
<path d="" fill="#3079E1" transform="translate(0,0)"/>
<path d="" fill="#2E78E1" transform="translate(0,0)"/>
<path d="" fill="#337BDC" transform="translate(0,0)"/>
<path d="" fill="#347CDA" transform="translate(0,0)"/>
<path d="" fill="#2E78DE" transform="translate(0,0)"/>
<path d="" fill="#347DE2" transform="translate(0,0)"/>
<path d="" fill="#1470F6" transform="translate(0,0)"/>
<path d="" fill="#136EF3" transform="translate(0,0)"/>
<path d="" fill="#136DF0" transform="translate(0,0)"/>
<path d="" fill="#136BEC" transform="translate(0,0)"/>
<path d="" fill="#1266E2" transform="translate(0,0)"/>
<path d="" fill="#1470F6" transform="translate(0,0)"/>
</svg>
